<svg width="14" height="16" viewBox="0 0 14 16" fill="none" xmlns="http://www.w3.org/2000/svg">
<path d="M8.16667 4.25V0H0.875C0.390104 0 0 0.334375 0 0.75V15.25C0 15.6656 0.390104 16 0.875 16H13.125C13.6099 16 14 15.6656 14 15.25V5H9.04167C8.56042 5 8.16667 4.6625 8.16667 4.25ZM10.5 11.625C10.5 11.8312 10.3031 12 10.0625 12H3.9375C3.69687 12 3.5 11.8312 3.5 11.625V11.375C3.5 11.1688 3.69687 11 3.9375 11H10.0625C10.3031 11 10.5 11.1688 10.5 11.375V11.625ZM10.5 9.625C10.5 9.83125 10.3031 10 10.0625 10H3.9375C3.69687 10 3.5 9.83125 3.5 9.625V9.375C3.5 9.16875 3.69687 9 3.9375 9H10.0625C10.3031 9 10.5 9.16875 10.5 9.375V9.625ZM10.5 7.375V7.625C10.5 7.83125 10.3031 8 10.0625 8H3.9375C3.69687 8 3.5 7.83125 3.5 7.625V7.375C3.5 7.16875 3.69687 7 3.9375 7H10.0625C10.3031 7 10.5 7.16875 10.5 7.375ZM14 3.80938V4H9.33333V0H9.55573C9.78906 0 10.0115 0.078125 10.1755 0.21875L13.7448 3.28125C13.9089 3.42188 14 3.6125 14 3.80938Z" fill="#8FA8BA"/>
</svg>
